<svg id="visual" viewBox="0 0 450 7680" width="450" height="7680" xmlns="http://www.w3.org/2000/svg" xmlns:xlink="http://www.w3.org/1999/xlink" version="1.1"><rect x="0" y="0" width="450" height="7680" fill="#000810"></rect><g fill="#0e1a22"><circle r="167" cx="333" cy="981"></circle><circle r="52" cx="267" cy="6850"></circle><circle r="152" cx="126" cy="4545"></circle><circle r="83" cx="342" cy="3694"></circle><circle r="94" cx="329" cy="4107"></circle><circle r="134" cx="38" cy="608"></circle><circle r="133" cx="188" cy="7464"></circle><circle r="151" cx="194" cy="292"></circle><circle r="71" cx="37" cy="1427"></circle><circle r="165" cx="217" cy="5993"></circle><circle r="70" cx="203" cy="6517"></circle><circle r="59" cx="272" cy="5322"></circle><circle r="112" cx="158" cy="2321"></circle><circle r="133" cx="230" cy="2968"></circle><circle r="87" cx="432" cy="2535"></circle><circle r="112" cx="309" cy="4837"></circle><circle r="134" cx="377" cy="1683"></circle><circle r="147" cx="150" cy="3324"></circle><circle r="78" cx="1" cy="1056"></circle><circle r="83" cx="63" cy="7118"></circle><circle r="143" cx="404" cy="23"></circle><circle r="147" cx="29" cy="5685"></circle></g></svg>